<svg xmlns="http://www.w3.org/2000/svg" xmlns:xlink="http://www.w3.org/1999/xlink" preserveAspectRatio="xMidYMid" width="161.78" height="175.657" viewBox="0 0 161.78 175.657">
  <defs>
    <style>
      .cls-1 {
        fill: #9f449b;
        fill-rule: evenodd;
      }
    </style>
  </defs>
  <path d="M62.763,171.605 C49.349,163.547 35.800,155.725 22.115,148.137 C8.430,140.549 1.723,128.932 1.994,113.287 C2.265,97.641 2.265,81.996 1.994,66.350 C1.723,50.705 8.430,39.088 22.115,31.500 C35.800,23.912 49.349,16.089 62.763,8.032 C76.177,-0.025 89.590,-0.025 103.004,8.032 C116.418,16.089 129.967,23.912 143.652,31.500 C157.337,39.088 164.044,50.705 163.773,66.350 C163.502,81.996 163.502,97.641 163.773,113.287 C164.044,128.932 157.337,140.549 143.652,148.137 C129.967,155.725 116.418,163.547 103.004,171.605 C89.590,179.662 76.177,179.662 62.763,171.605 Z" class="cls-1"/>
</svg>
